<svg xmlns="http://www.w3.org/2000/svg" width="180" height="180" viewBox="0 0 180 180">
  <!-- Background with rounded corners for iOS -->
  <rect width="180" height="180" fill="#4F46E5" rx="40"/>
  
  <!-- Tooth icon centered and scaled -->
  <g transform="translate(40, 10) scale(0.7)">
    <!-- White tooth shape -->
    <path d="M0 0 C10.46 -0.62 18.80 3.08 28.18 7.19 C39.87 12.30 48.02 14.17 60.24 9.56 C62.90 8.51 65.54 7.42 68.18 6.31 C70.10 5.54 72.01 4.77 73.93 4 C74.67 3.69 75.40 3.39 76.16 3.07 C83.55 0.28 92.55 0.00 100.14 2.15 C106.84 5.22 111.86 10.00 115.35 16.49 C116.53 20.50 116.47 24.29 116.43 28.44 C116.44 29.23 116.45 30.02 116.45 30.84 C116.42 41.65 113.93 50.83 109.62 60.69 C108.96 62.24 108.96 62.24 108.28 63.82 C106.10 68.92 103.88 74.00 101.66 79.08 C95.00 94.37 89.69 109.43 87.54 126.08 C85.71 140.14 83.21 155.28 72.74 165.75 C70.18 167.31 70.18 167.31 67.62 167.62 C63.55 165.44 62.59 161.57 61.18 157.31 C60.12 152.37 59.39 147.38 58.68 142.38 C56.91 127.59 56.91 127.59 49.99 114.75 C46.08 112.75 42.57 111.99 38.18 112.31 C33.69 114.47 31.27 116.81 29.18 121.31 C27.11 127.33 26.71 133.12 26.30 139.44 C24.71 160.78 24.71 160.78 19.18 166.31 C15.75 166.44 13.30 166.26 10.60 163.98 C0.87 152.18 -1.42 136.07 -4.33 121.57 C-4.82 119.15 -5.32 116.73 -5.82 114.31 C-5.95 113.67 -6.08 113.02 -6.21 112.35 C-8.85 99.37 -13.41 87.48 -18.41 75.25 C-25.56 57.65 -31.87 37.73 -26.86 18.66 C-23.23 10.35 -16.96 5.12 -8.79 1.38 C-5.89 0.49 -3.00 0.33 0 0 Z" fill="#FFFFFF"/>
  </g>
</svg>
