<?xml version="1.0" encoding="UTF-8" standalone="no"?>
<svg
   width="180"
   height="180"
   viewBox="0 0 180 180"
   version="1.1"
   id="svg1"
   sodipodi:docname="apple-touch-icon.svg"
   inkscape:version="1.4.2 (f4327f4, 2025-05-13)"
   xmlns:inkscape="http://www.inkscape.org/namespaces/inkscape"
   xmlns:sodipodi="http://sodipodi.sourceforge.net/DTD/sodipodi-0.dtd"
   xmlns="http://www.w3.org/2000/svg"
   xmlns:svg="http://www.w3.org/2000/svg">
  <defs
     id="defs1">
    <rect
       x="111.97943"
       y="159.17738"
       width="68.483291"
       height="15.732648"
       id="rect2" />
  </defs>
  <sodipodi:namedview
     id="namedview1"
     pagecolor="#505050"
     bordercolor="#eeeeee"
     borderopacity="1"
     inkscape:showpageshadow="0"
     inkscape:pageopacity="0"
     inkscape:pagecheckerboard="0"
     inkscape:deskcolor="#505050"
     inkscape:zoom="3.2416667"
     inkscape:cx="93.316194"
     inkscape:cy="108.74036"
     inkscape:window-width="1218"
     inkscape:window-height="1211"
     inkscape:window-x="148"
     inkscape:window-y="110"
     inkscape:window-maximized="0"
     inkscape:current-layer="svg1" />
  <!-- Background with rounded corners for iOS -->
  <rect
     width="180"
     height="180"
     fill="#4F46E5"
     rx="40"
     id="rect1" />
  <!-- Tooth icon centered and scaled -->
  <g
     transform="matrix(0.81692321,0,0,0.7,54.456273,20.025707)"
     id="g1">
    <!-- White tooth shape -->
    <path
       d="M 0,0 C 10.46,-0.62 18.8,3.08 28.18,7.19 39.87,12.3 48.02,14.17 60.24,9.56 62.9,8.51 65.54,7.42 68.18,6.31 70.1,5.54 72.01,4.77 73.93,4 74.67,3.69 75.4,3.39 76.16,3.07 83.55,0.28 92.55,0 100.14,2.15 c 6.7,3.07 11.72,7.85 15.21,14.34 1.18,4.01 1.12,7.8 1.08,11.95 0.01,0.79 0.02,1.58 0.02,2.4 -0.03,10.81 -2.52,19.99 -6.83,29.85 -0.66,1.55 -0.66,1.55 -1.34,3.13 -2.18,5.1 -4.4,10.18 -6.62,15.26 -6.66,15.29 -11.97,30.35 -14.12,47 -1.83,14.06 -4.33,29.2 -14.8,39.67 -2.56,1.56 -2.56,1.56 -5.12,1.87 -4.07,-2.18 -5.03,-6.05 -6.44,-10.31 -1.06,-4.94 -1.79,-9.93 -2.5,-14.93 -1.77,-14.79 -1.77,-14.79 -8.69,-27.63 -3.91,-2 -7.42,-2.76 -11.81,-2.44 -4.49,2.16 -6.91,4.5 -9,9 -2.07,6.02 -2.47,11.81 -2.88,18.13 -1.59,21.34 -1.59,21.34 -7.12,26.87 -3.43,0.13 -5.88,-0.05 -8.58,-2.33 -9.73,-11.8 -12.02,-27.91 -14.93,-42.41 -0.49,-2.42 -0.99,-4.84 -1.49,-7.26 -0.13,-0.64 -0.26,-1.29 -0.39,-1.96 -2.64,-12.98 -7.2,-24.87 -12.2,-37.1 -7.15,-17.6 -13.46,-37.52 -8.45,-56.59 3.63,-8.31 9.9,-13.54 18.07,-17.28 C -5.89,0.49 -3,0.33 0,0 Z"
       fill="#ffffff"
       id="path1" />
  </g>
  <text
     xml:space="preserve"
     id="text1"
     style="text-align:start;writing-mode:lr-tb;direction:ltr;white-space:pre;shape-inside:url(#rect2);display:inline;fill:#000000"
     transform="matrix(1.4023362,0,0,1.7246774,-115.42729,-128.94918)"><tspan
       x="111.97852"
       y="170.09616"
       id="tspan6">m2ea<tspan
   style="font-family:'Times New Roman';-inkscape-font-specification:'Times New Roman, ';fill:#ffffff"
   id="tspan2"> </tspan><tspan
   style="font-style:italic;font-family:'Times New Roman';-inkscape-font-specification:'Times New Roman,  Italic';fill:#7a7a7a"
   id="tspan5">Circle</tspan></tspan></text>
</svg>
