<?xml version="1.0" encoding="UTF-8" standalone="no"?>
<svg
   width="180"
   height="180"
   viewBox="0 0 180 180"
   version="1.1"
   id="svg1"
   sodipodi:docname="apple-touch-icon.svg"
   inkscape:version="1.4.2 (f4327f4, 2025-05-13)"
   xmlns:inkscape="http://www.inkscape.org/namespaces/inkscape"
   xmlns:sodipodi="http://sodipodi.sourceforge.net/DTD/sodipodi-0.dtd"
   xmlns="http://www.w3.org/2000/svg"
   xmlns:svg="http://www.w3.org/2000/svg">
  <defs
     id="defs1">
    <rect
       x="111.97943"
       y="159.17738"
       width="68.483291"
       height="15.732648"
       id="rect2" />
  </defs>
  <sodipodi:namedview
     id="namedview1"
     pagecolor="#505050"
     bordercolor="#eeeeee"
     borderopacity="1"
     inkscape:showpageshadow="0"
     inkscape:pageopacity="0"
     inkscape:pagecheckerboard="0"
     inkscape:deskcolor="#505050"
     inkscape:zoom="3.2416667"
     inkscape:cx="92.699228"
     inkscape:cy="108.74036"
     inkscape:window-width="1218"
     inkscape:window-height="1211"
     inkscape:window-x="148"
     inkscape:window-y="110"
     inkscape:window-maximized="0"
     inkscape:current-layer="svg1" />
  <!-- Background with rounded corners for iOS -->
  <rect
     width="180"
     height="180"
     fill="#4F46E5"
     rx="40"
     id="rect1" />
  <!-- Tooth icon centered and scaled -->
  <g
     transform="matrix(0.87882504,0,0,0.88962258,52.34284,14.911626)"
     id="g2">
    <!-- Main tooth body (white) -->
    <path
       d="M 0,0 C 10.46,-0.62 18.8,3.08 28.18,7.19 39.87,12.3 48.02,14.17 60.24,9.56 62.9,8.51 65.54,7.42 68.18,6.31 70.1,5.54 72.01,4.77 73.93,4 74.67,3.69 75.4,3.39 76.16,3.07 83.55,0.28 92.55,0 100.14,2.15 c 6.7,3.07 11.72,7.85 15.21,14.34 1.18,4.01 1.12,7.8 1.08,11.95 0.01,0.79 0.02,1.58 0.02,2.4 -0.03,10.81 -2.52,19.99 -6.83,29.85 -0.66,1.55 -0.66,1.55 -1.34,3.13 -2.18,5.1 -4.4,10.18 -6.62,15.26 -6.66,15.29 -11.97,30.35 -14.12,47 -1.83,14.06 -4.33,29.2 -14.8,39.67 -2.56,1.56 -2.56,1.56 -5.12,1.87 -4.07,-2.18 -5.03,-6.05 -6.44,-10.31 -1.06,-4.94 -1.79,-9.93 -2.5,-14.93 -1.77,-14.79 -1.77,-14.79 -8.69,-27.63 -3.91,-2 -7.42,-2.76 -11.81,-2.44 -4.49,2.16 -6.91,4.5 -9,9 -2.07,6.02 -2.47,11.81 -2.88,18.13 -1.59,21.34 -1.59,21.34 -7.12,26.87 -3.43,0.13 -5.88,-0.05 -8.58,-2.33 -9.73,-11.8 -12.02,-27.91 -14.93,-42.41 -0.49,-2.42 -0.99,-4.84 -1.49,-7.26 -0.13,-0.64 -0.26,-1.29 -0.39,-1.96 -2.64,-12.98 -7.2,-24.87 -12.2,-37.1 -7.15,-17.6 -13.46,-37.52 -8.45,-56.59 3.63,-8.31 9.9,-13.54 18.07,-17.28 C -5.89,0.49 -3,0.33 0,0 Z"
       fill="#ffffff"
       id="path1-8" />
    <!-- Tooth detail/shading (darker) -->
    <path
       d="M 0,0 C 10.46,-0.62 18.8,3.08 28.18,7.19 39.87,12.3 48.02,14.17 60.24,9.56 62.9,8.51 65.54,7.42 68.18,6.31 70.1,5.54 72.01,4.77 73.93,4 74.67,3.69 75.4,3.39 76.16,3.07 83.55,0.28 92.55,0 100.14,2.15 c 6.7,3.07 11.72,7.85 15.21,14.34 1.18,4.01 1.12,7.8 1.08,11.95 0.01,0.79 0.02,1.58 0.02,2.4 -0.03,10.81 -2.52,19.99 -6.83,29.85 -0.66,1.55 -0.66,1.55 -1.34,3.13 -2.18,5.1 -4.4,10.18 -6.62,15.26 -6.66,15.29 -11.97,30.35 -14.12,47 -1.83,14.06 -4.33,29.2 -14.8,39.67 -2.56,1.56 -2.56,1.56 -5.12,1.87 -4.07,-2.18 -5.03,-6.05 -6.44,-10.31 -1.06,-4.94 -1.79,-9.93 -2.5,-14.93 -1.77,-14.79 -1.77,-14.79 -8.69,-27.63 -3.91,-2 -7.42,-2.76 -11.81,-2.44 -4.49,2.16 -6.91,4.5 -9,9 -2.07,6.02 -2.47,11.81 -2.88,18.13 -1.59,21.34 -1.59,21.34 -7.12,26.87 -3.43,0.13 -5.88,-0.05 -8.58,-2.33 -9.73,-11.8 -12.02,-27.91 -14.93,-42.41 -0.49,-2.42 -0.99,-4.84 -1.49,-7.26 -0.13,-0.64 -0.26,-1.29 -0.39,-1.96 -2.64,-12.98 -7.2,-24.87 -12.2,-37.1 -7.15,-17.6 -13.46,-37.52 -8.45,-56.59 3.63,-8.31 9.9,-13.54 18.07,-17.28 C -5.89,0.49 -3,0.33 0,0 Z m -19.26,12.5 c -6.46,8.02 -7.3,15.75 -6.56,25.81 1.57,13.36 5.68,25.28 10.56,37.75 0.7,1.81 1.39,3.62 2.08,5.42 2.13,5.58 4.27,11.15 6.51,16.67 1.16,2.96 1.9,5.96 2.66,9.04 0.17,0.68 0.34,1.36 0.51,2.06 1.28,5.23 2.42,10.48 3.54,15.75 3.25,19.66 3.25,19.66 13.14,36.31 2.6,0.79 2.6,0.79 5,1 3.29,-7.62 4.25,-15.22 5.31,-23.41 0.34,-2.64 0.7,-5.27 1.06,-7.9 0.11,-0.84 0.21,-1.67 0.31,-2.53 0.96,-6.92 2.8,-12.76 7.94,-17.66 5.66,-2.51 10.82,-2.27 16.69,-0.5 7.87,5.86 10.18,15.99 11.57,25.26 0.23,1.76 0.46,3.53 0.68,5.31 1.06,11.76 1.06,11.76 5.44,22.43 3.27,-0.24 4.15,-1.16 6.45,-3.6 2.62,-3.26 4.24,-6.73 5.64,-10.65 0.25,-0.69 0.5,-1.38 0.76,-2.09 2.81,-8.04 4.27,-16.29 5.71,-24.66 2.95,-16.92 7.32,-32.18 14.52,-47.8 C 112.92,47.18 112.92,47.18 112.48,17.65 109.91,11.86 105.29,8.07 99.55,5.5 86.86,1.29 76.22,6.46 64.83,11.66 c -0.87,0.4 -1.75,0.8 -2.65,1.22 -0.87,0.39 -1.74,0.79 -2.64,1.2 -7.74,3.5 -14.79,6.23 -23.36,6.23 3.3,-0.99 6.6,-1.98 10,-3 0,-0.33 0,-0.66 0,-1 C 45.5,16.18 44.82,16.04 44.12,15.9 36.2,14.14 29.18,11.3 21.84,7.93 8.41,1.91 -8.45,1.34 -19.26,12.5 Z"
       fill="#e0e7ff"
       id="path2" />
  </g>
</svg>
