<?xml version="1.0" encoding="UTF-8" standalone="no"?>
<svg
   width="16"
   height="16"
   viewBox="0 0 16 16"
   version="1.1"
   id="svg1"
   sodipodi:docname="favicon-16x16.svg"
   inkscape:version="1.4.2 (f4327f4, 2025-05-13)"
   xmlns:inkscape="http://www.inkscape.org/namespaces/inkscape"
   xmlns:sodipodi="http://sodipodi.sourceforge.net/DTD/sodipodi-0.dtd"
   xmlns="http://www.w3.org/2000/svg"
   xmlns:svg="http://www.w3.org/2000/svg">
  <defs
     id="defs1" />
  <sodipodi:namedview
     id="namedview1"
     pagecolor="#505050"
     bordercolor="#eeeeee"
     borderopacity="1"
     inkscape:showpageshadow="0"
     inkscape:pageopacity="0"
     inkscape:pagecheckerboard="0"
     inkscape:deskcolor="#505050"
     inkscape:zoom="36.46875"
     inkscape:cx="5.6898029"
     inkscape:cy="8.3770351"
     inkscape:window-width="1212"
     inkscape:window-height="1095"
     inkscape:window-x="1250"
     inkscape:window-y="78"
     inkscape:window-maximized="0"
     inkscape:current-layer="svg1" />
  <rect
     width="16"
     height="16"
     fill="#4F46E5"
     rx="2"
     id="rect1" />
  <g
     transform="matrix(0.07521746,-3.6416653e-4,0,0.06449253,4.8544985,2.5968358)"
     id="g2"
     inkscape:transform-center-x="78.031844"
     inkscape:transform-center-y="72.971033">
    <!-- White tooth shape -->
    <path
       d="M 0,0 C 10.46,-0.62 18.8,3.08 28.18,7.19 39.87,12.3 48.02,14.17 60.24,9.56 62.9,8.51 65.54,7.42 68.18,6.31 70.1,5.54 72.01,4.77 73.93,4 74.67,3.69 75.4,3.39 76.16,3.07 83.55,0.28 92.55,0 100.14,2.15 c 6.7,3.07 11.72,7.85 15.21,14.34 1.18,4.01 1.12,7.8 1.08,11.95 0.01,0.79 0.02,1.58 0.02,2.4 -0.03,10.81 -2.52,19.99 -6.83,29.85 -0.66,1.55 -0.66,1.55 -1.34,3.13 -2.18,5.1 -4.4,10.18 -6.62,15.26 -6.66,15.29 -11.97,30.35 -14.12,47 -1.83,14.06 -4.33,29.2 -14.8,39.67 -2.56,1.56 -2.56,1.56 -5.12,1.87 -4.07,-2.18 -5.03,-6.05 -6.44,-10.31 -1.06,-4.94 -1.79,-9.93 -2.5,-14.93 -1.77,-14.79 -1.77,-14.79 -8.69,-27.63 -3.91,-2 -7.42,-2.76 -11.81,-2.44 -4.49,2.16 -6.91,4.5 -9,9 -2.07,6.02 -2.47,11.81 -2.88,18.13 -1.59,21.34 -1.59,21.34 -7.12,26.87 -3.43,0.13 -5.88,-0.05 -8.58,-2.33 -9.73,-11.8 -12.02,-27.91 -14.93,-42.41 -0.49,-2.42 -0.99,-4.84 -1.49,-7.26 -0.13,-0.64 -0.26,-1.29 -0.39,-1.96 -2.64,-12.98 -7.2,-24.87 -12.2,-37.1 -7.15,-17.6 -13.46,-37.52 -8.45,-56.59 3.63,-8.31 9.9,-13.54 18.07,-17.28 C -5.89,0.49 -3,0.33 0,0 Z"
       fill="#ffffff"
       id="path1" />
  </g>
</svg>
