<svg xmlns="http://www.w3.org/2000/svg" viewBox="0 0 200 200">
  <!-- Background -->
  <rect width="200" height="200" fill="#4F46E5" rx="20"/>
  
  <!-- Tooth Shape -->
  <g transform="translate(55.82, 16.69)">
    <!-- Main tooth body (white) -->
    <path d="M0 0 C10.46 -0.62 18.80 3.08 28.18 7.19 C39.87 12.30 48.02 14.17 60.24 9.56 C62.90 8.51 65.54 7.42 68.18 6.31 C70.10 5.54 72.01 4.77 73.93 4 C74.67 3.69 75.40 3.39 76.16 3.07 C83.55 0.28 92.55 0.00 100.14 2.15 C106.84 5.22 111.86 10.00 115.35 16.49 C116.53 20.50 116.47 24.29 116.43 28.44 C116.44 29.23 116.45 30.02 116.45 30.84 C116.42 41.65 113.93 50.83 109.62 60.69 C108.96 62.24 108.96 62.24 108.28 63.82 C106.10 68.92 103.88 74.00 101.66 79.08 C95.00 94.37 89.69 109.43 87.54 126.08 C85.71 140.14 83.21 155.28 72.74 165.75 C70.18 167.31 70.18 167.31 67.62 167.62 C63.55 165.44 62.59 161.57 61.18 157.31 C60.12 152.37 59.39 147.38 58.68 142.38 C56.91 127.59 56.91 127.59 49.99 114.75 C46.08 112.75 42.57 111.99 38.18 112.31 C33.69 114.47 31.27 116.81 29.18 121.31 C27.11 127.33 26.71 133.12 26.30 139.44 C24.71 160.78 24.71 160.78 19.18 166.31 C15.75 166.44 13.30 166.26 10.60 163.98 C0.87 152.18 -1.42 136.07 -4.33 121.57 C-4.82 119.15 -5.32 116.73 -5.82 114.31 C-5.95 113.67 -6.08 113.02 -6.21 112.35 C-8.85 99.37 -13.41 87.48 -18.41 75.25 C-25.56 57.65 -31.87 37.73 -26.86 18.66 C-23.23 10.35 -16.96 5.12 -8.79 1.38 C-5.89 0.49 -3.00 0.33 0 0 Z" fill="#FFFFFF"/>
    
    <!-- Tooth detail/shading (darker) -->
    <path d="M0 0 C10.46 -0.62 18.80 3.08 28.18 7.19 C39.87 12.30 48.02 14.17 60.24 9.56 C62.90 8.51 65.54 7.42 68.18 6.31 C70.10 5.54 72.01 4.77 73.93 4 C74.67 3.69 75.40 3.39 76.16 3.07 C83.55 0.28 92.55 0.00 100.14 2.15 C106.84 5.22 111.86 10.00 115.35 16.49 C116.53 20.50 116.47 24.29 116.43 28.44 C116.44 29.23 116.45 30.02 116.45 30.84 C116.42 41.65 113.93 50.83 109.62 60.69 C108.96 62.24 108.96 62.24 108.28 63.82 C106.10 68.92 103.88 74.00 101.66 79.08 C95.00 94.37 89.69 109.43 87.54 126.08 C85.71 140.14 83.21 155.28 72.74 165.75 C70.18 167.31 70.18 167.31 67.62 167.62 C63.55 165.44 62.59 161.57 61.18 157.31 C60.12 152.37 59.39 147.38 58.68 142.38 C56.91 127.59 56.91 127.59 49.99 114.75 C46.08 112.75 42.57 111.99 38.18 112.31 C33.69 114.47 31.27 116.81 29.18 121.31 C27.11 127.33 26.71 133.12 26.30 139.44 C24.71 160.78 24.71 160.78 19.18 166.31 C15.75 166.44 13.30 166.26 10.60 163.98 C0.87 152.18 -1.42 136.07 -4.33 121.57 C-4.82 119.15 -5.32 116.73 -5.82 114.31 C-5.95 113.67 -6.08 113.02 -6.21 112.35 C-8.85 99.37 -13.41 87.48 -18.41 75.25 C-25.56 57.65 -31.87 37.73 -26.86 18.66 C-23.23 10.35 -16.96 5.12 -8.79 1.38 C-5.89 0.49 -3.00 0.33 0 0 Z M-19.26 12.50 C-25.72 20.52 -26.56 28.25 -25.82 38.31 C-24.25 51.67 -20.14 63.59 -15.26 76.06 C-14.56 77.87 -13.87 79.68 -13.18 81.48 C-11.05 87.06 -8.91 92.63 -6.67 98.15 C-5.51 101.11 -4.77 104.11 -4.01 107.19 C-3.84 107.87 -3.67 108.55 -3.50 109.25 C-2.22 114.48 -1.08 119.73 0.04 125.00 C3.29 144.66 3.29 144.66 13.18 161.31 C15.78 162.10 15.78 162.10 18.18 162.31 C21.47 154.69 22.43 147.09 23.49 138.90 C23.83 136.26 24.19 133.63 24.55 131.00 C24.66 130.16 24.76 129.33 24.86 128.47 C25.82 121.55 27.66 115.71 32.80 110.81 C38.46 108.30 43.62 108.54 49.49 110.31 C57.36 116.17 59.67 126.30 61.06 135.57 C61.29 137.33 61.52 139.10 61.74 140.88 C62.80 152.64 62.80 152.64 67.18 163.31 C70.45 163.07 71.33 162.15 73.63 159.71 C76.25 156.45 77.87 152.98 79.27 149.06 C79.52 148.37 79.77 147.68 80.03 146.97 C82.84 138.93 84.30 130.68 85.74 122.31 C88.69 105.39 93.06 90.13 100.26 74.51 C112.92 47.18 112.92 47.18 112.48 17.65 C109.91 11.86 105.29 8.07 99.55 5.50 C86.86 1.29 76.22 6.46 64.83 11.66 C63.96 12.06 63.08 12.46 62.18 12.88 C61.31 13.27 60.44 13.67 59.54 14.08 C51.80 17.58 44.75 20.31 36.18 20.31 C39.48 19.32 42.78 18.33 46.18 17.31 C46.18 16.98 46.18 16.65 46.18 16.31 C45.50 16.18 44.82 16.04 44.12 15.90 C36.20 14.14 29.18 11.30 21.84 7.93 C8.41 1.91 -8.45 1.34 -19.26 12.50 Z" fill="#E0E7FF"/>
  </g>
</svg>
